<?xml version="1.0" encoding="UTF-8" standalone="no"?>
<!-- Created with Inkscape (http://www.inkscape.org/) -->

<svg
   version="1.1"
   id="svg2"
   width="829.198"
   height="413.66998"
   viewBox="0 0 829.19801 413.66998"
   sodipodi:docname="Kruschke_fig13-2.svg"
   inkscape:version="1.2.1 (9c6d41e410, 2022-07-14)"
   xmlns:inkscape="http://www.inkscape.org/namespaces/inkscape"
   xmlns:sodipodi="http://sodipodi.sourceforge.net/DTD/sodipodi-0.dtd"
   xmlns="http://www.w3.org/2000/svg"
   xmlns:svg="http://www.w3.org/2000/svg">
  <defs
     id="defs6" />
  <sodipodi:namedview
     id="namedview4"
     pagecolor="#ffffff"
     bordercolor="#999999"
     borderopacity="1"
     inkscape:showpageshadow="0"
     inkscape:pageopacity="0"
     inkscape:pagecheckerboard="0"
     inkscape:deskcolor="#d1d1d1"
     showgrid="false"
     inkscape:zoom="2.1802459"
     inkscape:cx="328.40332"
     inkscape:cy="152.50573"
     inkscape:window-width="1920"
     inkscape:window-height="1001"
     inkscape:window-x="-9"
     inkscape:window-y="-9"
     inkscape:window-maximized="1"
     inkscape:current-layer="g8" />
  <g
     id="g8"
     inkscape:groupmode="layer"
     inkscape:label="Kruschke J.K. - Doing Bayesian Data Analysis [Figures and Tables]"
     transform="matrix(1.3333333,0,0,-1.3333333,6.6783332,807.07298)"
     style="display:inline">
    <g
       id="g18"
       transform="matrix(1.35,0,0,1.35,414.86323,430.59338)">
      <path
         d="m 0,0 c -0.785,3.769 2.846,7.333 6.476,7.333 1.148,0.031 2.342,-0.33 3.3,-0.896 0.944,1.712 2.673,2.764 4.606,2.764 1.289,-0.063 2.656,-0.565 3.615,-1.492 0.708,1.523 2.169,2.403 3.772,2.403 1.336,0 2.562,-0.644 3.332,-1.633 0.896,1.02 2.232,1.633 3.631,1.633 2.279,0 4.196,-1.586 4.605,-3.816 2.2,-0.628 3.788,-2.653 3.788,-4.961 0,-0.706 -0.126,-1.397 -0.457,-2.041 0.944,-1.131 1.51,-2.528 1.51,-3.957 0,-3.234 -2.515,-5.95 -5.738,-6.406 0,-3.108 -2.482,-5.526 -5.595,-5.526 -1.068,0 -2.074,0.298 -2.97,0.863 -0.801,-2.731 -3.394,-4.663 -6.287,-4.663 -2.137,0 -4.181,1.147 -5.39,2.968 -1.149,-0.707 -0.55,-1.115 -3.836,-1.115 -2.688,0 -5.187,1.429 -6.475,3.752 -3.112,0.048 -4.699,1.885 -4.699,4.208 0,1.052 0.408,2.041 1.147,2.842 -1.352,0.675 -2.075,2.025 -2.075,3.564 0,2.151 1.619,3.941 3.74,4.176"
         style="fill:#cfe6f4;fill-opacity:1;fill-rule:evenodd;stroke:none"
         id="path20" />
    </g>
    <path
       d="m 414.86458,430.59338 c -1.0611,5.08815 3.8394,9.89955 8.7426,9.89955 1.5471,0.0419 3.16035,-0.4455 4.455,-1.20825 1.27305,2.30985 3.60855,3.73005 6.21675,3.73005 1.74015,-0.085 3.5856,-0.76275 4.88025,-2.0142 0.95445,2.05605 2.92815,3.24405 5.0922,3.24405 1.8036,0 3.46005,-0.8694 4.4982,-2.2059 1.21095,1.37835 3.0132,2.2059 4.9032,2.2059 3.0753,0 5.66325,-2.1411 6.2154,-5.1516 2.97,-0.8478 5.11515,-3.58155 5.11515,-6.69735 0,-0.9531 -0.17145,-1.88595 -0.6156,-2.75535 1.2717,-1.52685 2.0358,-3.4128 2.0358,-5.34195 0,-4.3659 -3.39525,-8.0325 -7.74495,-8.6481 0,-4.1958 -3.35205,-7.4601 -7.55325,-7.4601 -1.44315,0 -2.80125,0.4023 -4.0095,1.1664 -1.08405,-3.6882 -4.58325,-6.2964 -8.4888,-6.2964 -2.88495,0 -5.643,1.5471 -7.27785,4.0068 -1.54845,-0.95445 -0.7425,-1.50525 -5.17725,-1.50525 -3.6288,0 -7.00245,1.92915 -8.74125,5.0652 -4.19985,0.0648 -6.345,2.54475 -6.345,5.6808 0,1.4202 0.55215,2.75535 1.5498,3.8367 -1.8252,0.91125 -2.80125,2.73375 -2.80125,4.8114 0,2.90385 2.18565,5.32035 5.05035,5.6376 z m -5.05035,13.6512 z m 56.5893,-41.18445 z m -51.53895,27.53325 c 0.0432,-0.46575 0.2754,-1.01655 0.42525,-1.44045 m -5.4756,15.09165 z m 56.5893,-41.18445 z m -38.34135,36.22455 c 0.6156,-0.36045 1.3365,-0.84915 1.84545,-1.3365 m -20.0934,6.2964 z m 56.5893,-41.18445 z m -27.24435,37.9404 c -0.21195,-0.3807 -0.33885,-0.86805 -0.46575,-1.33515 m -28.8792,4.5792 z m 56.5893,-41.18445 z m -17.65395,38.97855 c -0.38205,-0.46575 -0.59265,-1.0584 -0.87075,-1.61055 m -38.0646,3.81645 z m 56.5893,-41.18445 z m -6.53535,36.03285 c 0.0432,-0.36045 0.3186,-1.1232 0.21195,-1.2933 m -50.2659,6.4449 z m 56.5893,-41.18445 z m -2.0358,26.58015 c -0.4482,-0.9747 -1.04085,-1.8225 -1.89,-2.5434 m -52.6635,17.1477 z m 56.5893,-41.18445 z m -7.72335,12.5901 c 0.21195,1.52685 -0.99765,5.32035 -4.35105,6.76215 m -44.5149,21.8322 z m 56.5893,-41.18445 z m -19.3077,6.2964 c 0.2106,0.61425 0.297,1.18665 0.33885,1.8009 m -37.62045,33.08715 z m 56.5893,-41.18445 z m -35.0514,4.0068 c -0.42525,0.48735 -0.6804,1.05975 -0.9558,1.6524 m -20.5821,35.52525 z m 56.5893,-41.18445 z m -48.99285,7.56675 c 0.4887,0.0648 0.99765,0.1917 1.4634,0.36045 m -9.05985,33.25725 z m 56.5893,-41.18445 z m -53.78805,17.08425 c 0.84915,-0.50895 1.8468,-0.93285 3.28995,-0.76275 m -6.0912,24.86295 z m 56.5893,-41.18445 z"
       style="fill:none;stroke:#231f20;stroke-width:1.0125;stroke-linecap:butt;stroke-linejoin:round;stroke-miterlimit:10;stroke-dasharray:1.08155, 1.08155, 1.08155, 1.08155;stroke-dashoffset:0;stroke-opacity:1"
       id="path22" />
    <g
       id="g24"
       transform="matrix(1.35,0,0,1.35,317.04898,430.61498)">
      <path
         d="m 0,0 c -1.068,3.768 3.928,7.332 8.911,7.332 1.571,0.031 3.206,-0.33 4.526,-0.895 1.29,1.712 3.663,2.764 6.334,2.764 1.761,-0.063 3.648,-0.566 4.983,-1.492 0.959,1.523 2.987,2.402 5.171,2.402 1.839,0 3.521,-0.643 4.59,-1.633 1.225,1.021 3.064,1.633 4.997,1.633 3.113,0 5.753,-1.586 6.318,-3.815 3.019,-0.628 5.204,-2.653 5.204,-4.961 0,-0.707 -0.158,-1.398 -0.614,-2.041 1.273,-1.131 2.059,-2.528 2.059,-3.957 0,-3.234 -3.442,-5.95 -7.875,-6.406 0,-3.109 -3.41,-5.526 -7.684,-5.526 -1.462,0 -2.861,0.298 -4.087,0.863 -1.116,-2.732 -4.668,-4.663 -8.644,-4.663 -2.955,0 -5.753,1.146 -7.435,2.967 -1.571,-0.706 -0.754,-1.114 -5.249,-1.114 -3.71,0 -7.136,1.428 -8.912,3.752 -4.275,0.047 -6.46,1.884 -6.46,4.208 0,1.052 0.565,2.041 1.573,2.842 -1.84,0.675 -2.846,2.025 -2.846,3.564 0,2.151 2.232,3.94 5.14,4.176"
         style="fill:#cfe6f4;fill-opacity:1;fill-rule:evenodd;stroke:none"
         id="path26" />
    </g>
    <path
       d="m 317.04898,430.61498 c -1.4418,5.0868 5.30415,9.8982 12.0312,9.8982 2.1222,0.0419 4.3281,-0.4455 6.1101,-1.2069 1.74015,2.30985 4.94505,3.7287 8.5509,3.7287 2.376,-0.0837 4.92345,-0.76275 6.7257,-2.01285 1.29465,2.05605 4.03245,3.2427 6.98085,3.2427 2.48265,0 4.75335,-0.86805 6.1965,-2.20455 1.65375,1.37835 4.13775,2.20455 6.7473,2.20455 4.2012,0 7.76655,-2.1411 8.5293,-5.15025 4.0743,-0.8478 7.0227,-3.58155 7.0227,-6.69735 0,-0.95445 -0.2106,-1.8873 -0.8262,-2.75535 1.7172,-1.52685 2.7783,-3.4128 2.7783,-5.34195 0,-4.36725 -4.6467,-8.0325 -10.6299,-8.6481 0,-4.19715 -4.6035,-7.4601 -10.37475,-7.4601 -1.9737,0 -3.86235,0.4023 -5.51745,1.16505 -1.50525,-3.6882 -6.3018,-6.29505 -11.67075,-6.29505 -3.9879,0 -7.7652,1.5471 -10.0359,4.0068 -2.12085,-0.95445 -1.0179,-1.50525 -7.08615,-1.50525 -5.00715,0 -9.6336,1.9278 -12.02985,5.0652 -5.77125,0.0634 -8.72235,2.5434 -8.72235,5.6808 0,1.4202 0.7641,2.75535 2.1222,3.8367 -2.48265,0.91125 -3.8394,2.73375 -3.8394,4.8114 0,2.90385 3.01185,5.32035 6.93765,5.6376 z m -6.93765,13.64985 z m 77.7843,-41.1831 z m -70.84665,27.53325 c 0.0635,-0.46575 0.4023,-1.0179 0.57375,-1.44045 m -7.5114,15.0903 z m 77.7843,-41.1831 z m -52.70535,36.22455 c 0.84915,-0.3618 1.8468,-0.84915 2.52585,-1.3365 m -27.6048,6.29505 z m 77.7843,-41.1831 z m -37.42875,37.9404 c -0.2754,-0.3807 -0.46575,-0.8694 -0.63585,-1.33515 m -39.7197,4.57785 z m 77.7843,-41.1831 z m -24.2514,38.97855 c -0.5319,-0.46575 -0.82755,-1.05975 -1.188,-1.61055 m -52.3449,3.8151 z m 77.7843,-41.1831 z m -8.9748,36.03285 c 0.0634,-0.36045 0.42525,-1.1232 0.2754,-1.2933 m -69.0849,6.44355 z m 77.7843,-41.1831 z m -2.7783,26.58015 c -0.6156,-0.9747 -1.44315,-1.82385 -2.59065,-2.54475 m -72.41535,17.1477 z m 77.7843,-41.1831 z m -10.58805,12.5901 c 0.2754,1.52685 -1.37835,5.32035 -5.98185,6.76215 m -61.2144,21.83085 z m 77.7843,-41.1831 z m -26.5221,6.29505 c 0.297,0.61425 0.40365,1.18665 0.4671,1.80225 m -51.7293,33.0858 z m 77.7843,-41.1831 z m -48.18555,4.0068 c -0.594,0.48735 -0.9558,1.0584 -1.29465,1.6524 m -28.3041,35.5239 z m 77.7843,-41.1831 z m -67.34475,7.56675 c 0.6777,0.0634 1.35675,0.1917 2.01555,0.36045 m -12.4551,33.2559 z m 77.7843,-41.1831 z m -73.9449,17.08425 c 1.188,-0.50895 2.5677,-0.93285 4.5414,-0.76275 m -8.3808,24.8616 z m 77.7843,-41.1831 z"
       style="fill:none;stroke:#231f20;stroke-width:1.0125;stroke-linecap:butt;stroke-linejoin:round;stroke-miterlimit:10;stroke-dasharray:1.08155, 1.08155, 1.08155, 1.08155;stroke-dashoffset:0;stroke-opacity:1"
       id="path28" />
    <g
       id="g30"
       transform="matrix(1.35,0,0,1.35,110.29783,472.47713)">
      <path
         d="M 0,0 V 37.429 L 12.432,49.85 H 49.776 V 12.434 L 37.328,0 H 0"
         style="fill:#9fc9eb;fill-opacity:1;fill-rule:evenodd;stroke:none"
         id="path32" />
    </g>
    <g
       id="g34"
       transform="matrix(1.35,0,0,1.35,110.29783,472.47713)">
      <path
         d="M 0,0 V 37.43 L 12.432,49.849 H 49.776 V 12.434 L 37.328,0 Z"
         style="fill:none;stroke:#231f20;stroke-width:0.75;stroke-linecap:butt;stroke-linejoin:round;stroke-miterlimit:10;stroke-dasharray:none;stroke-opacity:1"
         id="path36" />
      <g
         id="g38"
         transform="translate(0,49.849)">
        <path
           d="M 0,0 Z"
           style="fill:none;stroke:#231f20;stroke-width:0.75;stroke-linecap:butt;stroke-linejoin:round;stroke-miterlimit:10;stroke-dasharray:none;stroke-opacity:1"
           id="path40" />
        <g
           id="g42"
           transform="translate(49.776,-49.849)">
          <path
             d="M 0,0 Z"
             style="fill:none;stroke:#231f20;stroke-width:0.75;stroke-linecap:butt;stroke-linejoin:round;stroke-miterlimit:10;stroke-dasharray:none;stroke-opacity:1"
             id="path44" />
        </g>
      </g>
    </g>
    <g
       id="g46"
       transform="matrix(1.35,0,0,1.35,110.29783,523.00628)">
      <path
         d="M 0,0 12.432,12.421 H 49.776 L 37.328,0 H 0"
         style="fill:#b2d4f0;fill-opacity:1;fill-rule:evenodd;stroke:none"
         id="path48" />
    </g>
    <g
       id="g50"
       transform="matrix(1.35,0,0,1.35,110.29783,523.00763)">
      <path
         d="M 0,0 12.432,12.419 H 49.776 L 37.328,0 Z"
         style="fill:none;stroke:#231f20;stroke-width:0.75;stroke-linecap:butt;stroke-linejoin:round;stroke-miterlimit:10;stroke-dasharray:none;stroke-opacity:1"
         id="path52" />
      <g
         id="g54"
         transform="translate(0,12.419)">
        <path
           d="M 0,0 Z"
           style="fill:none;stroke:#231f20;stroke-width:0.75;stroke-linecap:butt;stroke-linejoin:round;stroke-miterlimit:10;stroke-dasharray:none;stroke-opacity:1"
           id="path56" />
        <g
           id="g58"
           transform="translate(49.776,-49.849)">
          <path
             d="M 0,0 Z"
             style="fill:none;stroke:#231f20;stroke-width:0.75;stroke-linecap:butt;stroke-linejoin:round;stroke-miterlimit:10;stroke-dasharray:none;stroke-opacity:1"
             id="path60" />
        </g>
      </g>
    </g>
    <g
       id="g62"
       transform="matrix(1.35,0,0,1.35,160.69063,472.47713)">
      <path
         d="M 0,0 V 37.429 L 12.448,49.85 V 12.434 L 0,0"
         style="fill:#7ba3cc;fill-opacity:1;fill-rule:evenodd;stroke:none"
         id="path64" />
    </g>
    <g
       id="g66"
       transform="matrix(1.35,0,0,1.35,160.69063,472.47713)">
      <path
         d="M 0,0 V 37.43 L 12.448,49.849 V 12.434 Z"
         style="fill:none;stroke:#231f20;stroke-width:0.75;stroke-linecap:butt;stroke-linejoin:round;stroke-miterlimit:10;stroke-dasharray:none;stroke-opacity:1"
         id="path68" />
      <g
         id="g70"
         transform="translate(-37.328,49.849)">
        <path
           d="M 0,0 Z"
           style="fill:none;stroke:#231f20;stroke-width:0.75;stroke-linecap:butt;stroke-linejoin:round;stroke-miterlimit:10;stroke-dasharray:none;stroke-opacity:1"
           id="path72" />
        <g
           id="g74"
           transform="translate(49.776,-49.849)">
          <path
             d="M 0,0 Z"
             style="fill:none;stroke:#231f20;stroke-width:0.75;stroke-linecap:butt;stroke-linejoin:round;stroke-miterlimit:10;stroke-dasharray:none;stroke-opacity:1"
             id="path76" />
        </g>
      </g>
    </g>
    <g
       id="g186"
       transform="matrix(1.35,0,0,1.35,388.23583,423.66248)">
      <path
         d="M 0,0 H 11.175"
         style="fill:none;stroke:#231f20;stroke-width:0.408;stroke-linecap:butt;stroke-linejoin:round;stroke-miterlimit:10;stroke-dasharray:none;stroke-opacity:1"
         id="path188" />
    </g>
    <g
       id="g190"
       transform="matrix(1.35,0,0,1.35,403.38553,421.73333)">
      <path
         d="m 0,0 -0.284,-0.376 5.03,1.805 -5.03,1.79 0.268,-0.361 C 0.433,2.144 0.544,1.244 0.22,0.456 L 0,0"
         style="fill:#231f20;fill-opacity:1;fill-rule:evenodd;stroke:none"
         id="path192" />
    </g>
    <g
       id="g194"
       transform="matrix(1.35,0,0,1.35,463.28368,425.48498)">
      <path
         d="M 0,0 H 13.172"
         style="fill:none;stroke:#231f20;stroke-width:0.408;stroke-linecap:butt;stroke-linejoin:round;stroke-miterlimit:10;stroke-dasharray:none;stroke-opacity:1"
         id="path196" />
    </g>
    <g
       id="g198"
       transform="matrix(1.35,0,0,1.35,481.10773,423.55718)">
      <path
         d="m 0,0 -0.283,-0.377 5.029,1.805 -5.029,1.79 0.267,-0.361 C 0.437,2.144 0.54,1.244 0.22,0.455 L 0,0"
         style="fill:#231f20;fill-opacity:1;fill-rule:evenodd;stroke:none"
         id="path200" />
    </g>
    <g
       id="g202"
       transform="matrix(1.35,0,0,1.35,473.76643,374.53193)">
      <path
         d="m 0,0 c -2.61,0 -5.218,-2.607 -5.218,-5.213 v -20.882 c 0,-2.606 2.608,-5.228 5.218,-5.228 h 77.39 c 2.61,0 5.219,2.622 5.219,5.228 V -5.213 C 82.609,-2.607 80,0 77.39,0 H 0"
         style="fill:#ffffff;fill-opacity:1;fill-rule:evenodd;stroke:none"
         id="path204" />
    </g>
    <g
       id="g206"
       transform="matrix(1.35,0,0,1.35,473.76643,374.53058)">
      <path
         d="m 0,0 c -2.61,0 -5.219,-2.606 -5.219,-5.212 v -20.882 c 0,-2.606 2.609,-5.228 5.219,-5.228 h 77.39 c 2.61,0 5.219,2.622 5.219,5.228 V -5.212 C 82.609,-2.606 80,0 77.39,0 Z"
         style="fill:none;stroke:#231f20;stroke-width:0.75;stroke-linecap:butt;stroke-linejoin:round;stroke-miterlimit:10;stroke-dasharray:none;stroke-opacity:1"
         id="path208" />
      <g
         id="g210"
         transform="translate(-5.219)">
        <path
           d="M 0,0 Z"
           style="fill:none;stroke:#231f20;stroke-width:0.75;stroke-linecap:butt;stroke-linejoin:round;stroke-miterlimit:10;stroke-dasharray:none;stroke-opacity:1"
           id="path212" />
        <g
           id="g214"
           transform="translate(87.845,-31.322)">
          <path
             d="M 0,0 Z"
             style="fill:none;stroke:#231f20;stroke-width:0.75;stroke-linecap:butt;stroke-linejoin:round;stroke-miterlimit:10;stroke-dasharray:none;stroke-opacity:1"
             id="path216" />
        </g>
      </g>
    </g>
    <g
       id="g218"
       transform="matrix(1.35,0,0,1.35,469.52203,363.93308)">
      <path
         d="m 0,0 c -2.609,0 -5.218,-2.606 -5.218,-5.212 v -20.882 c 0,-2.606 2.609,-5.213 5.218,-5.213 h 77.391 c 2.61,0 5.218,2.607 5.218,5.213 V -5.212 C 82.609,-2.606 80.001,0 77.391,0 H 0"
         style="fill:#ffffff;fill-opacity:1;fill-rule:evenodd;stroke:none"
         id="path220" />
    </g>
    <g
       id="g222"
       transform="matrix(1.35,0,0,1.35,469.52203,363.93308)">
      <path
         d="m 0,0 c -2.608,0 -5.218,-2.606 -5.218,-5.212 v -20.882 c 0,-2.606 2.61,-5.213 5.218,-5.213 h 77.392 c 2.609,0 5.217,2.607 5.217,5.213 V -5.212 C 82.609,-2.606 80.001,0 77.392,0 Z"
         style="fill:none;stroke:#231f20;stroke-width:0.75;stroke-linecap:butt;stroke-linejoin:round;stroke-miterlimit:10;stroke-dasharray:none;stroke-opacity:1"
         id="path224" />
      <g
         id="g226"
         transform="translate(-5.218)">
        <path
           d="M 0,0 Z"
           style="fill:none;stroke:#231f20;stroke-width:0.75;stroke-linecap:butt;stroke-linejoin:round;stroke-miterlimit:10;stroke-dasharray:none;stroke-opacity:1"
           id="path228" />
        <g
           id="g230"
           transform="translate(87.844,-31.307)">
          <path
             d="M 0,0 Z"
             style="fill:none;stroke:#231f20;stroke-width:0.75;stroke-linecap:butt;stroke-linejoin:round;stroke-miterlimit:10;stroke-dasharray:none;stroke-opacity:1"
             id="path232" />
        </g>
      </g>
    </g>
    <g
       id="g234"
       transform="matrix(1.35,0,0,1.35,493.47643,498.18653)">
      <path
         d="m 0,0 c -2.326,0 -4.652,-2.323 -4.652,-4.647 v -18.636 c 0,-2.324 2.326,-4.648 4.652,-4.648 h 43.113 c 2.326,0 4.667,2.324 4.667,4.648 V -4.647 C 47.78,-2.323 45.439,0 43.113,0 H 0"
         style="fill:#ffffff;fill-opacity:1;fill-rule:evenodd;stroke:none"
         id="path236" />
    </g>
    <g
       id="g238"
       transform="matrix(1.35,0,0,1.35,493.47778,498.18653)">
      <path
         d="m 0,0 c -2.325,0 -4.653,-2.323 -4.653,-4.648 v -18.636 c 0,-2.323 2.328,-4.647 4.653,-4.647 h 43.112 c 2.326,0 4.668,2.324 4.668,4.647 V -4.648 C 47.78,-2.323 45.438,0 43.112,0 Z"
         style="fill:none;stroke:#231f20;stroke-width:0.75;stroke-linecap:butt;stroke-linejoin:round;stroke-miterlimit:10;stroke-dasharray:none;stroke-opacity:1"
         id="path240" />
      <g
         id="g242"
         transform="translate(-4.653)">
        <path
           d="M 0,0 Z"
           style="fill:none;stroke:#231f20;stroke-width:0.75;stroke-linecap:butt;stroke-linejoin:round;stroke-miterlimit:10;stroke-dasharray:none;stroke-opacity:1"
           id="path244" />
        <g
           id="g246"
           transform="translate(52.433,-27.947)">
          <path
             d="M 0,0 Z"
             style="fill:none;stroke:#231f20;stroke-width:0.75;stroke-linecap:butt;stroke-linejoin:round;stroke-miterlimit:10;stroke-dasharray:none;stroke-opacity:1"
             id="path248" />
        </g>
      </g>
    </g>
    <g
       id="g348"
       transform="matrix(1.35,0,0,1.35,465.27763,353.33558)">
      <path
         d="m 0,0 c -2.608,0 -5.218,-2.606 -5.218,-5.212 v -20.867 c 0,-2.606 2.61,-5.228 5.218,-5.228 h 77.392 c 2.61,0 5.218,2.622 5.218,5.228 V -5.212 C 82.61,-2.606 80.002,0 77.392,0 H 0"
         style="fill:#ffffff;fill-opacity:1;fill-rule:evenodd;stroke:none"
         id="path350" />
    </g>
    <g
       id="g352"
       transform="matrix(1.35,0,0,1.35,465.27898,353.33558)">
      <path
         d="m 0,0 c -2.609,0 -5.218,-2.607 -5.218,-5.212 v -20.867 c 0,-2.606 2.609,-5.228 5.218,-5.228 h 77.391 c 2.609,0 5.218,2.622 5.218,5.228 V -5.212 C 82.609,-2.607 80,0 77.391,0 Z"
         style="fill:none;stroke:#231f20;stroke-width:0.75;stroke-linecap:butt;stroke-linejoin:round;stroke-miterlimit:10;stroke-dasharray:none;stroke-opacity:1"
         id="path354" />
      <g
         id="g356"
         transform="translate(-5.218)">
        <path
           d="M 0,0 Z"
           style="fill:none;stroke:#231f20;stroke-width:0.75;stroke-linecap:butt;stroke-linejoin:round;stroke-miterlimit:10;stroke-dasharray:none;stroke-opacity:1"
           id="path358" />
        <g
           id="g360"
           transform="translate(87.843,-31.307)">
          <path
             d="M 0,0 Z"
             style="fill:none;stroke:#231f20;stroke-width:0.75;stroke-linecap:butt;stroke-linejoin:round;stroke-miterlimit:10;stroke-dasharray:none;stroke-opacity:1"
             id="path362" />
        </g>
      </g>
    </g>
    <g
       id="g608"
       transform="matrix(1.35,0,0,1.35,517.17838,390.49163)">
      <path
         d="M 0,0 V -23.112"
         style="fill:none;stroke:#231f20;stroke-width:0.408;stroke-linecap:butt;stroke-linejoin:round;stroke-miterlimit:10;stroke-dasharray:none;stroke-opacity:1"
         id="path610" />
    </g>
    <g
       id="g612"
       transform="matrix(1.35,0,0,1.35,515.22763,359.22833)">
      <path
         d="M 0,0 -0.362,0.282 1.429,-4.742 3.237,0.282 2.86,0.015 C 2.138,-0.437 1.251,-0.541 0.454,-0.22 L 0,0"
         style="fill:#231f20;fill-opacity:1;fill-rule:evenodd;stroke:none"
         id="path614" />
    </g>
    <g
       id="g616"
       transform="matrix(1.35,0,0,1.35,523.54363,401.08913)">
      <path
         d="M 0,0 V -23.111"
         style="fill:none;stroke:#231f20;stroke-width:0.408;stroke-linecap:butt;stroke-linejoin:round;stroke-miterlimit:10;stroke-dasharray:none;stroke-opacity:1"
         id="path618" />
    </g>
    <g
       id="g620"
       transform="matrix(1.35,0,0,1.35,521.59153,369.82583)">
      <path
         d="M 0,0 -0.362,0.282 1.431,-4.742 3.237,0.282 2.861,0.016 C 2.142,-0.434 1.25,-0.542 0.456,-0.22 L 0,0"
         style="fill:#231f20;fill-opacity:1;fill-rule:evenodd;stroke:none"
         id="path622" />
    </g>
    <g
       id="g624"
       transform="matrix(1.35,0,0,1.35,529.91023,411.68798)">
      <path
         d="M 0,0 V -23.127"
         style="fill:none;stroke:#231f20;stroke-width:0.408;stroke-linecap:butt;stroke-linejoin:round;stroke-miterlimit:10;stroke-dasharray:none;stroke-opacity:1"
         id="path626" />
    </g>
    <g
       id="g628"
       transform="matrix(1.35,0,0,1.35,527.95813,380.42333)">
      <path
         d="M 0,0 -0.362,0.283 1.429,-4.741 3.237,0.283 2.86,0.016 C 2.145,-0.434 1.245,-0.542 0.455,-0.219 L 0,0"
         style="fill:#231f20;fill-opacity:1;fill-rule:evenodd;stroke:none"
         id="path630" />
    </g>
    <g
       id="g632"
       transform="matrix(1.35,0,0,1.35,496.93648,437.82128)">
      <path
         d="m 0,0 c -2.829,0 -5.642,-2.826 -5.642,-5.652 v -22.593 c 0,-2.826 2.813,-5.652 5.642,-5.652 h 41.117 c 2.827,0 5.657,2.826 5.657,5.652 V -5.652 C 46.774,-2.826 43.944,0 41.117,0 H 0"
         style="fill:#ffffff;fill-opacity:1;fill-rule:evenodd;stroke:none"
         id="path634" />
    </g>
    <text
       xml:space="preserve"
       style="font-style:normal;font-variant:normal;font-weight:normal;font-stretch:normal;font-size:9px;font-family:sans-serif;-inkscape-font-specification:'sans-serif, Normal';font-variant-ligatures:normal;font-variant-caps:normal;font-variant-numeric:normal;font-variant-east-asian:normal;display:inline;fill:#000000;stroke-width:0.75"
       x="525.02771"
       y="-423.7771"
       id="text1267-7"
       transform="scale(1,-1)"><tspan
         sodipodi:role="line"
         id="tspan877"
         x="525.02771"
         y="-423.7771"
         style="text-align:center;text-anchor:middle">Test U &lt; Δ </tspan><tspan
         sodipodi:role="line"
         id="tspan879"
         x="525.02771"
         y="-412.5271"
         style="text-align:center;text-anchor:middle">(at level α)</tspan><tspan
         sodipodi:role="line"
         id="tspan881"
         x="525.02771"
         y="-401.2771"
         style="text-align:center;text-anchor:middle">Width U-L &lt; Δ</tspan></text>
    <g
       id="g636"
       transform="matrix(1.35,0,0,1.35,496.93648,437.82128)">
      <path
         d="m 0,0 c -2.829,0 -5.643,-2.826 -5.643,-5.652 v -22.593 c 0,-2.826 2.814,-5.652 5.643,-5.652 h 41.117 c 2.828,0 5.657,2.826 5.657,5.652 V -5.652 C 46.774,-2.826 43.945,0 41.117,0 Z"
         style="fill:none;stroke:#231f20;stroke-width:0.75;stroke-linecap:butt;stroke-linejoin:round;stroke-miterlimit:10;stroke-dasharray:none;stroke-opacity:1"
         id="path638" />
      <g
         id="g640"
         transform="translate(-5.643)">
        <path
           d="M 0,0 Z"
           style="fill:none;stroke:#231f20;stroke-width:0.75;stroke-linecap:butt;stroke-linejoin:round;stroke-miterlimit:10;stroke-dasharray:none;stroke-opacity:1"
           id="path642" />
        <g
           id="g644"
           transform="translate(52.433,-33.897)">
          <path
             d="M 0,0 Z"
             style="fill:none;stroke:#231f20;stroke-width:0.75;stroke-linecap:butt;stroke-linejoin:round;stroke-miterlimit:10;stroke-dasharray:none;stroke-opacity:1"
             id="path646" />
        </g>
      </g>
    </g>
    <g
       id="g686"
       transform="matrix(1.35,0,0,1.35,523.54363,458.76383)">
      <path
         d="M 0,0 V -10.174"
         style="fill:none;stroke:#231f20;stroke-width:0.408;stroke-linecap:butt;stroke-linejoin:round;stroke-miterlimit:10;stroke-dasharray:none;stroke-opacity:1"
         id="path688" />
    </g>
    <g
       id="g690"
       transform="matrix(1.35,0,0,1.35,521.59153,444.96413)">
      <path
         d="M 0,0 -0.362,0.283 1.431,-4.741 3.237,0.283 2.861,0.016 C 2.144,-0.433 1.247,-0.543 0.456,-0.219 L 0,0"
         style="fill:#231f20;fill-opacity:1;fill-rule:evenodd;stroke:none"
         id="path692" />
    </g>
    <g
       id="g694"
       transform="matrix(1.35,0,0,1.35,457.89448,403.95113)">
      <path
         d="M 0,0 H 17.164"
         style="fill:none;stroke:#231f20;stroke-width:0.408;stroke-linecap:butt;stroke-linejoin:round;stroke-miterlimit:10;stroke-dasharray:none;stroke-opacity:1"
         id="path696" />
    </g>
    <g
       id="g698"
       transform="matrix(1.35,0,0,1.35,481.10773,402.04358)">
      <path
         d="m 0,0 -0.283,-0.377 5.029,1.805 -5.029,1.79 0.267,-0.361 C 0.437,2.144 0.54,1.244 0.22,0.455 L 0,0"
         style="fill:#231f20;fill-opacity:1;fill-rule:evenodd;stroke:none"
         id="path700" />
    </g>
    <g
       id="g702"
       transform="matrix(1.35,0,0,1.35,462.13888,414.54863)">
      <path
         d="M 0,0 14.02,0.094"
         style="fill:none;stroke:#231f20;stroke-width:0.408;stroke-linecap:butt;stroke-linejoin:round;stroke-miterlimit:10;stroke-dasharray:none;stroke-opacity:1"
         id="path704" />
    </g>
    <g
       id="g706"
       transform="matrix(1.35,0,0,1.35,481.12798,412.76798)">
      <path
         d="M 0,0 -0.283,-0.377 4.731,1.46 -0.314,3.219 -0.031,2.858 C 0.422,2.145 0.525,1.244 0.205,0.455 L 0,0"
         style="fill:#231f20;fill-opacity:1;fill-rule:evenodd;stroke:none"
         id="path708" />
    </g>
    <g
       id="g710"
       transform="matrix(1.35,0,0,1.35,379.74838,402.46748)">
      <path
         d="M 0,0 H 11.175"
         style="fill:none;stroke:#231f20;stroke-width:0.408;stroke-linecap:butt;stroke-linejoin:round;stroke-miterlimit:10;stroke-dasharray:none;stroke-opacity:1"
         id="path712" />
    </g>
    <g
       id="g714"
       transform="matrix(1.35,0,0,1.35,394.89673,400.55993)">
      <path
         d="m 0,0 -0.282,-0.377 5.03,1.806 -5.03,1.789 0.267,-0.361 C 0.438,2.137 0.542,1.25 0.221,0.455 L 0,0"
         style="fill:#231f20;fill-opacity:1;fill-rule:evenodd;stroke:none"
         id="path716" />
    </g>
    <g
       id="g718"
       transform="matrix(1.35,0,0,1.35,383.99278,413.06498)">
      <path
         d="M 0,0 H 11.175"
         style="fill:none;stroke:#231f20;stroke-width:0.408;stroke-linecap:butt;stroke-linejoin:round;stroke-miterlimit:10;stroke-dasharray:none;stroke-opacity:1"
         id="path720" />
    </g>
    <g
       id="g722"
       transform="matrix(1.35,0,0,1.35,399.14113,411.15743)">
      <path
         d="m 0,0 -0.283,-0.377 5.03,1.806 -5.03,1.789 0.267,-0.361 C 0.439,2.138 0.542,1.25 0.22,0.455 L 0,0"
         style="fill:#231f20;fill-opacity:1;fill-rule:evenodd;stroke:none"
         id="path724" />
    </g>
    <g
       id="g726"
       transform="matrix(1.35,0,0,1.35,282.76033,412.02683)">
      <path
         d="M 0,0 H 13.171"
         style="fill:none;stroke:#231f20;stroke-width:0.408;stroke-linecap:butt;stroke-linejoin:round;stroke-miterlimit:10;stroke-dasharray:none;stroke-opacity:1"
         id="path728" />
    </g>
    <g
       id="g730"
       transform="matrix(1.35,0,0,1.35,300.58303,410.11793)">
      <path
         d="m 0,0 -0.282,-0.376 5.028,1.805 -5.028,1.79 0.267,-0.361 C 0.437,2.133 0.543,1.255 0.22,0.456 L 0,0"
         style="fill:#231f20;fill-opacity:1;fill-rule:evenodd;stroke:none"
         id="path732" />
    </g>
    <g
       id="g734"
       transform="matrix(1.35,0,0,1.35,282.76033,412.02683)">
      <path
         d="M 0,0 10.609,-5.605"
         style="fill:none;stroke:#231f20;stroke-width:0.408;stroke-linecap:butt;stroke-linejoin:round;stroke-miterlimit:10;stroke-dasharray:none;stroke-opacity:1"
         id="path736" />
    </g>
    <g
       id="g738"
       transform="matrix(1.35,0,0,1.35,296.21308,402.74288)">
      <path
         d="M 0,0 -0.425,-0.188 4.855,-0.958 1.256,2.983 1.32,2.528 C 1.393,1.685 1.06,0.832 0.393,0.298 L 0,0"
         style="fill:#231f20;fill-opacity:1;fill-rule:evenodd;stroke:none"
         id="path740" />
    </g>
    <g
       id="g742"
       transform="matrix(1.35,0,0,1.35,282.76033,412.02683)">
      <path
         d="M 0,0 16.629,6.186"
         style="fill:none;stroke:#231f20;stroke-width:0.408;stroke-linecap:butt;stroke-linejoin:round;stroke-miterlimit:10;stroke-dasharray:none;stroke-opacity:1"
         id="path744" />
    </g>
    <g
       id="g746"
       transform="matrix(1.35,0,0,1.35,305.93038,418.59728)">
      <path
         d="M 0,0 -0.141,-0.456 3.945,2.983 -1.399,2.92 -1.021,2.669 C -0.358,2.16 0.088,1.335 0.047,0.487 L 0,0"
         style="fill:#231f20;fill-opacity:1;fill-rule:evenodd;stroke:none"
         id="path748" />
    </g>
    <g
       id="g750"
       transform="matrix(1.35,0,0,1.35,205.18528,589.28723)">
      <path
         d="m 0,0 c -2.326,0 -4.652,-2.323 -4.652,-4.648 v -18.636 c 0,-2.323 2.326,-4.646 4.652,-4.646 h 43.096 c 2.326,0 4.669,2.323 4.669,4.646 V -4.648 C 47.765,-2.323 45.422,0 43.096,0 H 0"
         style="fill:#ffffff;fill-opacity:1;fill-rule:evenodd;stroke:none"
         id="path752" />
    </g>
    <g
       id="g754"
       transform="matrix(1.35,0,0,1.35,205.18528,589.28588)">
      <path
         d="m 0,0 c -2.326,0 -4.653,-2.323 -4.653,-4.646 v -18.637 c 0,-2.323 2.327,-4.647 4.653,-4.647 h 43.096 c 2.327,0 4.669,2.324 4.669,4.647 V -4.646 C 47.765,-2.323 45.423,0 43.096,0 Z"
         style="fill:none;stroke:#231f20;stroke-width:0.75;stroke-linecap:butt;stroke-linejoin:round;stroke-miterlimit:10;stroke-dasharray:none;stroke-opacity:1"
         id="path756" />
      <g
         id="g758"
         transform="translate(-4.653)">
        <path
           d="M 0,0 Z"
           style="fill:none;stroke:#231f20;stroke-width:0.75;stroke-linecap:butt;stroke-linejoin:round;stroke-miterlimit:10;stroke-dasharray:none;stroke-opacity:1"
           id="path760" />
        <g
           id="g762"
           transform="translate(52.418,-27.946)">
          <path
             d="M 0,0 Z"
             style="fill:none;stroke:#231f20;stroke-width:0.75;stroke-linecap:butt;stroke-linejoin:round;stroke-miterlimit:10;stroke-dasharray:none;stroke-opacity:1"
             id="path764" />
        </g>
      </g>
    </g>
    <g
       id="g864"
       transform="matrix(1.35,0,0,1.35,235.23088,492.18848)">
      <path
         d="M 0,0 V -23.111"
         style="fill:none;stroke:#231f20;stroke-width:0.408;stroke-linecap:butt;stroke-linejoin:round;stroke-miterlimit:10;stroke-dasharray:none;stroke-opacity:1"
         id="path866" />
    </g>
    <g
       id="g868"
       transform="matrix(1.35,0,0,1.35,233.30038,460.92518)">
      <path
         d="M 0,0 -0.362,0.282 1.429,-4.742 3.237,0.282 2.86,0.015 C 2.142,-0.437 1.247,-0.54 0.454,-0.22 L 0,0"
         style="fill:#231f20;fill-opacity:1;fill-rule:evenodd;stroke:none"
         id="path870" />
    </g>
    <g
       id="g872"
       transform="matrix(1.35,0,0,1.35,208.64398,528.92063)">
      <path
         d="m 0,0 c -2.829,0 -5.643,-2.827 -5.643,-5.652 v -22.593 c 0,-2.827 2.814,-5.652 5.643,-5.652 h 41.101 c 2.829,0 5.657,2.825 5.657,5.652 V -5.652 C 46.758,-2.827 43.93,0 41.101,0 H 0"
         style="fill:#ffffff;fill-opacity:1;fill-rule:evenodd;stroke:none"
         id="path874" />
    </g>
    <g
       id="g876"
       transform="matrix(1.35,0,0,1.35,208.64398,528.92063)">
      <path
         d="m 0,0 c -2.829,0 -5.642,-2.826 -5.642,-5.652 v -22.593 c 0,-2.827 2.813,-5.652 5.642,-5.652 h 41.1 c 2.83,0 5.659,2.825 5.659,5.652 V -5.652 C 46.759,-2.826 43.93,0 41.1,0 Z"
         style="fill:none;stroke:#231f20;stroke-width:0.75;stroke-linecap:butt;stroke-linejoin:round;stroke-miterlimit:10;stroke-dasharray:none;stroke-opacity:1"
         id="path878" />
      <g
         id="g880"
         transform="translate(-5.642)">
        <path
           d="M 0,0 Z"
           style="fill:none;stroke:#231f20;stroke-width:0.75;stroke-linecap:butt;stroke-linejoin:round;stroke-miterlimit:10;stroke-dasharray:none;stroke-opacity:1"
           id="path882" />
        <g
           id="g884"
           transform="translate(52.416,-33.897)">
          <path
             d="M 0,0 Z"
             style="fill:none;stroke:#231f20;stroke-width:0.75;stroke-linecap:butt;stroke-linejoin:round;stroke-miterlimit:10;stroke-dasharray:none;stroke-opacity:1"
             id="path886" />
        </g>
      </g>
    </g>
    <g
       id="g926"
       transform="matrix(1.35,0,0,1.35,235.23088,549.86183)">
      <path
         d="M 0,0 V -10.174"
         style="fill:none;stroke:#231f20;stroke-width:0.408;stroke-linecap:butt;stroke-linejoin:round;stroke-miterlimit:10;stroke-dasharray:none;stroke-opacity:1"
         id="path928" />
    </g>
    <g
       id="g930"
       transform="matrix(1.35,0,0,1.35,233.30038,536.06348)">
      <path
         d="M 0,0 -0.362,0.283 1.429,-4.741 3.237,0.283 2.86,0.015 C 2.135,-0.436 1.253,-0.541 0.454,-0.219 L 0,0"
         style="fill:#231f20;fill-opacity:1;fill-rule:evenodd;stroke:none"
         id="path932" />
    </g>
    <g
       id="g934"
       transform="matrix(1.35,0,0,1.35,169.58173,506.32568)">
      <path
         d="M 0,0 H 17.163"
         style="fill:none;stroke:#231f20;stroke-width:0.408;stroke-linecap:butt;stroke-linejoin:round;stroke-miterlimit:10;stroke-dasharray:none;stroke-opacity:1"
         id="path936" />
    </g>
    <g
       id="g938"
       transform="matrix(1.35,0,0,1.35,192.81523,504.41813)">
      <path
         d="m 0,0 -0.283,-0.377 5.03,1.806 -5.03,1.79 0.267,-0.362 C 0.435,2.143 0.542,1.245 0.22,0.456 L 0,0"
         style="fill:#231f20;fill-opacity:1;fill-rule:evenodd;stroke:none"
         id="path940" />
    </g>
    <g
       id="g942"
       transform="matrix(1.35,0,0,1.35,26.59243,472.49738)">
      <path
         d="M 0,0 V 37.383 L 12.479,49.85 H 53.894 V 12.466 L 41.399,0 H 0"
         style="fill:#9fc9eb;fill-opacity:1;fill-rule:evenodd;stroke:none"
         id="path944" />
    </g>
    <g
       id="g946"
       transform="matrix(1.35,0,0,1.35,26.59243,472.49738)">
      <path
         d="M 0,0 V 37.383 L 12.479,49.849 H 53.894 V 12.466 L 41.399,0 Z"
         style="fill:none;stroke:#231f20;stroke-width:0.75;stroke-linecap:butt;stroke-linejoin:round;stroke-miterlimit:10;stroke-dasharray:none;stroke-opacity:1"
         id="path948" />
      <g
         id="g950"
         transform="translate(0,49.849)">
        <path
           d="M 0,0 Z"
           style="fill:none;stroke:#231f20;stroke-width:0.75;stroke-linecap:butt;stroke-linejoin:round;stroke-miterlimit:10;stroke-dasharray:none;stroke-opacity:1"
           id="path952" />
        <g
           id="g954"
           transform="translate(53.894,-49.849)">
          <path
             d="M 0,0 Z"
             style="fill:none;stroke:#231f20;stroke-width:0.75;stroke-linecap:butt;stroke-linejoin:round;stroke-miterlimit:10;stroke-dasharray:none;stroke-opacity:1"
             id="path956" />
        </g>
      </g>
    </g>
    <g
       id="g958"
       transform="matrix(1.35,0,0,1.35,26.59243,522.96443)">
      <path
         d="M 0,0 12.479,12.467 H 53.894 L 41.399,0 H 0"
         style="fill:#b2d4f0;fill-opacity:1;fill-rule:evenodd;stroke:none"
         id="path960" />
    </g>
    <g
       id="g962"
       transform="matrix(1.35,0,0,1.35,26.59243,522.96443)">
      <path
         d="M 0,0 12.479,12.466 H 53.894 L 41.399,0 Z"
         style="fill:none;stroke:#231f20;stroke-width:0.75;stroke-linecap:butt;stroke-linejoin:round;stroke-miterlimit:10;stroke-dasharray:none;stroke-opacity:1"
         id="path964" />
      <g
         id="g966"
         transform="translate(0,12.466)">
        <path
           d="M 0,0 Z"
           style="fill:none;stroke:#231f20;stroke-width:0.75;stroke-linecap:butt;stroke-linejoin:round;stroke-miterlimit:10;stroke-dasharray:none;stroke-opacity:1"
           id="path968" />
        <g
           id="g970"
           transform="translate(53.894,-49.849)">
          <path
             d="M 0,0 Z"
             style="fill:none;stroke:#231f20;stroke-width:0.75;stroke-linecap:butt;stroke-linejoin:round;stroke-miterlimit:10;stroke-dasharray:none;stroke-opacity:1"
             id="path972" />
        </g>
      </g>
    </g>
    <g
       id="g974"
       transform="matrix(1.35,0,0,1.35,82.48108,472.49738)">
      <path
         d="M 0,0 V 37.383 L 12.495,49.85 V 12.466 L 0,0"
         style="fill:#7ba3cc;fill-opacity:1;fill-rule:evenodd;stroke:none"
         id="path976" />
    </g>
    <g
       id="g978"
       transform="matrix(1.35,0,0,1.35,82.48108,472.49738)">
      <path
         d="M 0,0 V 37.383 L 12.495,49.849 V 12.466 Z"
         style="fill:none;stroke:#231f20;stroke-width:0.75;stroke-linecap:butt;stroke-linejoin:round;stroke-miterlimit:10;stroke-dasharray:none;stroke-opacity:1"
         id="path980" />
      <g
         id="g982"
         transform="translate(-41.399,49.849)">
        <path
           d="M 0,0 Z"
           style="fill:none;stroke:#231f20;stroke-width:0.75;stroke-linecap:butt;stroke-linejoin:round;stroke-miterlimit:10;stroke-dasharray:none;stroke-opacity:1"
           id="path984" />
        <g
           id="g986"
           transform="translate(53.894,-49.849)">
          <path
             d="M 0,0 Z"
             style="fill:none;stroke:#231f20;stroke-width:0.75;stroke-linecap:butt;stroke-linejoin:round;stroke-miterlimit:10;stroke-dasharray:none;stroke-opacity:1"
             id="path988" />
        </g>
      </g>
    </g>
    <g
       id="g1076"
       transform="matrix(1.35,0,0,1.35,91.45588,506.21903)">
      <path
         d="M 0,0 9.053,0.049"
         style="fill:none;stroke:#231f20;stroke-width:0.408;stroke-linecap:butt;stroke-linejoin:round;stroke-miterlimit:10;stroke-dasharray:none;stroke-opacity:1"
         id="path1078" />
    </g>
    <g
       id="g1080"
       transform="matrix(1.35,0,0,1.35,103.74088,504.39788)">
      <path
         d="M 0,0 -0.283,-0.377 4.731,1.444 -0.314,3.218 -0.031,2.857 C 0.415,2.109 0.531,1.259 0.205,0.439 L 0,0"
         style="fill:#231f20;fill-opacity:1;fill-rule:evenodd;stroke:none"
         id="path1082" />
    </g>
    <g
       id="g1084"
       transform="matrix(1.35,0,0,1.35,198.33133,428.19848)">
      <path
         d="m 0,0 c -1.257,8.384 4.621,16.297 10.499,16.297 1.855,0.063 3.772,-0.753 5.344,-1.978 1.509,3.799 4.306,6.123 7.45,6.123 2.09,-0.125 4.307,-1.256 5.879,-3.297 1.131,3.36 3.52,5.322 6.097,5.322 2.169,0 4.15,-1.428 5.392,-3.626 1.446,2.261 3.614,3.626 5.878,3.626 3.678,0 6.789,-3.532 7.45,-8.494 3.552,-1.381 6.13,-5.871 6.13,-11.021 0,-1.57 -0.19,-3.077 -0.723,-4.522 1.508,-2.512 2.42,-5.621 2.42,-8.777 0,-7.19 -4.055,-13.251 -9.273,-14.287 0,-6.877 -4.023,-12.278 -9.054,-12.278 -1.728,0 -3.363,0.66 -4.793,1.916 -1.32,-6.06 -5.501,-10.331 -10.185,-10.331 -3.489,0 -6.789,2.543 -8.77,6.563 -1.854,-1.539 -0.88,-2.45 -6.193,-2.45 -4.369,0 -8.392,3.172 -10.499,8.321 -5.029,0.126 -7.606,4.208 -7.606,9.358 0,2.386 0.659,4.553 1.854,6.343 -2.169,1.507 -3.348,4.491 -3.348,7.913 0,4.789 2.625,8.745 6.051,9.279"
         style="fill:#9fc9eb;fill-opacity:1;fill-rule:evenodd;stroke:none"
         id="path1086" />
    </g>
    <path
       d="m 198.33133,428.19848 c -1.69695,11.3184 6.23835,22.00095 14.175,22.00095 2.5029,0.085 5.09085,-1.01655 7.21305,-2.6703 2.0385,5.12865 5.81445,8.26605 10.05885,8.26605 2.8215,-0.16875 5.81445,-1.6956 7.9353,-4.45095 1.52685,4.536 4.752,7.1847 8.23365,7.1847 2.9268,0 5.6025,-1.9278 7.2765,-4.8951 1.9521,3.05235 4.88025,4.8951 7.93665,4.8951 4.96395,0 9.16515,-4.7682 10.0575,-11.4669 4.7952,-1.86435 8.2755,-7.92585 8.2755,-14.87835 0,-2.1195 -0.25515,-4.15395 -0.9774,-6.1047 2.0385,-3.3912 3.267,-7.58835 3.267,-11.84895 0,-9.7065 -5.4729,-17.88885 -12.51855,-19.28745 0,-9.28395 -5.4297,-16.5753 -12.22155,-16.5753 -2.33415,0 -4.54005,0.891 -6.47055,2.5866 -1.78335,-8.18235 -7.4277,-13.94685 -13.7511,-13.94685 -4.71015,0 -9.16515,3.43305 -11.8395,8.86005 -2.50425,-2.07765 -1.188,-3.3075 -8.3592,-3.3075 -5.8995,0 -11.33055,4.2822 -14.175,11.23335 -6.78915,0.1701 -10.2681,5.6808 -10.2681,12.6333 0,3.2211 0.891,6.14655 2.5029,8.56305 -2.92815,2.03445 -4.5198,6.06285 -4.5198,10.68255 0,6.46515 3.54375,11.80575 8.16885,12.52665 z m -8.16885,30.33045 z m 91.62045,-91.5219 z m -83.4516,61.19145 c 0.085,-1.05975 0.4671,-2.2464 0.67905,-3.2211 m -8.8479,33.55155 z m 91.62045,-91.5219 z m -62.06355,80.5221 c 0.9774,-0.80595 2.1654,-1.90755 2.97135,-3.00915 m -32.52825,14.00895 z m 91.62045,-91.5219 z m -44.0694,84.3372 c -0.3402,-0.88965 -0.55215,-1.9494 -0.76545,-2.9673 m -46.7856,10.152 z m 91.62045,-91.5219 z m -28.55925,86.6268 c -0.6372,-1.0179 -0.97605,-2.3733 -1.3986,-3.6045 m -61.6626,8.4996 z m 91.62045,-91.5219 z m -10.5651,80.055 c 0.0851,-0.7614 0.50895,-2.45835 0.33885,-2.83905 m -81.3942,14.30595 z m 91.62045,-91.5219 z m -3.267,59.07195 c -0.71955,-2.16135 -1.69695,-4.0689 -3.0537,-5.6376 m -85.29975,38.08755 z m 91.62045,-91.5219 z m -12.47535,27.93555 c 0.33885,3.43305 -1.61055,11.9124 -7.04295,15.09165 m -72.10215,48.4947 z m 91.62045,-91.5219 z m -31.21065,13.94685 c 0.3375,1.3986 0.46575,2.6703 0.55215,4.02705 m -60.96195,73.548 z m 91.62045,-91.5219 z m -56.75805,8.86005 c -0.67905,1.1016 -1.1043,2.3733 -1.52685,3.68685 m -33.33555,78.975 z m 91.62045,-91.5219 z m -79.33545,16.7859 c 0.8073,0.1701 1.61325,0.42525 2.37735,0.80595 m -14.66235,73.93005 z m 91.62045,-91.5219 z m -87.10065,37.98225 c 1.39995,-1.1016 3.0132,-2.07765 5.346,-1.6956 m -9.8658,55.23525 z m 91.62045,-91.5219 z"
       style="fill:none;stroke:#231f20;stroke-width:1.0125;stroke-linecap:butt;stroke-linejoin:round;stroke-miterlimit:10;stroke-dasharray:1.08155, 1.08155, 1.08155, 1.08155;stroke-dashoffset:0;stroke-opacity:1"
       id="path1088" />
    <g
       id="g1262"
       transform="matrix(1.35,0,0,1.35,312.78433,420.03908)">
      <path
         d="m 0,0 c -1.069,3.768 3.929,7.332 8.911,7.332 1.572,0.031 3.207,-0.33 4.527,-0.895 1.288,1.711 3.661,2.763 6.334,2.763 1.76,-0.063 3.646,-0.565 4.982,-1.492 0.959,1.523 2.986,2.402 5.171,2.402 1.839,0 3.521,-0.643 4.589,-1.632 1.226,1.02 3.066,1.632 4.998,1.632 3.113,0 5.752,-1.585 6.319,-3.814 3.017,-0.629 5.202,-2.654 5.202,-4.962 0,-0.707 -0.157,-1.397 -0.613,-2.041 1.274,-1.13 2.059,-2.512 2.059,-3.941 0,-3.234 -3.442,-5.966 -7.874,-6.421 0,-3.109 -3.411,-5.527 -7.686,-5.527 -1.461,0 -2.861,0.298 -4.087,0.864 -1.115,-2.732 -4.667,-4.663 -8.644,-4.663 -2.955,0 -5.752,1.146 -7.434,2.967 -1.572,-0.707 -0.755,-1.115 -5.25,-1.115 -3.709,0 -7.135,1.429 -8.912,3.753 -4.274,0.047 -6.458,1.883 -6.458,4.207 0,1.068 0.565,2.057 1.571,2.858 -1.839,0.675 -2.844,2.025 -2.844,3.564 0,2.151 2.231,3.925 5.139,4.161"
         style="fill:#cfe6f4;fill-opacity:1;fill-rule:evenodd;stroke:none"
         id="path1264" />
    </g>
    <path
       d="m 312.78433,420.03908 c -1.4418,5.0868 5.30415,9.8982 12.0312,9.8982 2.1222,0.0419 4.3281,-0.4455 6.1101,-1.20825 1.74015,2.30985 4.9437,3.73005 8.5509,3.73005 2.376,-0.085 4.9221,-0.76275 6.72705,-2.01285 1.2933,2.0547 4.0311,3.2427 6.9795,3.2427 2.48265,0 4.75335,-0.8694 6.1965,-2.20455 1.65375,1.377 4.13775,2.20455 6.7473,2.20455 4.2012,0 7.76655,-2.1411 8.5293,-5.15025 4.0743,-0.8478 7.0227,-3.5829 7.0227,-6.6987 0,-0.95445 -0.2106,-1.8873 -0.8262,-2.75535 1.7172,-1.5255 2.7783,-3.3912 2.7783,-5.32035 0,-4.3659 -4.6467,-8.0541 -10.6299,-8.6697 0,-4.1958 -4.6035,-7.4601 -10.37475,-7.4601 -1.9737,0 -3.86235,0.4023 -5.5188,1.1664 -1.5066,-3.6882 -6.30045,-6.29505 -11.6694,-6.29505 -3.98925,0 -7.7652,1.5471 -10.0359,4.00545 -2.12085,-0.95445 -1.0179,-1.50525 -7.08615,-1.50525 -5.0085,0 -9.6336,1.92915 -12.0312,5.06655 -5.77125,0.0634 -8.721,2.54205 -8.721,5.67945 0,1.4418 0.7641,2.77695 2.1222,3.8583 -2.4813,0.91125 -3.8394,2.73375 -3.8394,4.8114 0,2.90385 3.01185,5.29875 6.93765,5.61735 z m -6.93765,13.64985 z m 77.7843,-41.1831 z m -70.84665,27.53325 c 0.0634,-0.4671 0.4023,-1.0179 0.57375,-1.4418 m -7.5114,15.09165 z m 77.7843,-41.1831 z m -52.70535,36.2232 c 0.84915,-0.36045 1.8468,-0.8478 2.52585,-1.33515 m -27.6048,6.29505 z m 77.7843,-41.1831 z m -37.4274,37.9404 c -0.27675,-0.38205 -0.4671,-0.8694 -0.6372,-1.3365 m -39.7197,4.5792 z m 77.7843,-41.1831 z m -24.2514,38.97855 c -0.5319,-0.4671 -0.8289,-1.05975 -1.188,-1.61055 m -52.3449,3.8151 z m 77.7843,-41.1831 z m -8.9748,36.03285 c 0.0634,-0.36045 0.42525,-1.12455 0.2754,-1.2933 m -69.0849,6.44355 z m 77.7843,-41.1831 z m -2.7783,26.5788 c -0.6156,-0.9747 -1.44315,-1.80225 -2.58795,-2.5218 m -72.41805,17.1261 z m 77.7843,-41.1831 z m -10.58805,12.58875 c 0.2781,1.52685 -1.37835,5.34195 -5.98185,6.78375 m -61.2144,21.8106 z m 77.7843,-41.1831 z m -26.52345,6.29505 c 0.29835,0.61425 0.405,1.18665 0.46845,1.8009 m -51.7293,33.08715 z m 77.7843,-41.1831 z m -48.1869,4.00545 c -0.59265,0.48735 -0.95445,1.05975 -1.2933,1.6524 m -28.3041,35.52525 z m 77.7843,-41.1831 z m -67.3461,7.56675 c 0.67905,0.0634 1.3581,0.19035 2.0169,0.36045 m -12.4551,33.2559 z m 77.7843,-41.1831 z m -73.9449,17.1045 c 1.188,-0.50895 2.5677,-0.93285 4.5414,-0.76275 m -8.3808,24.84135 z m 77.7843,-41.1831 z"
       style="fill:none;stroke:#231f20;stroke-width:1.0125;stroke-linecap:butt;stroke-linejoin:round;stroke-miterlimit:10;stroke-dasharray:1.08155, 1.08155, 1.08155, 1.08155;stroke-dashoffset:0;stroke-opacity:1"
       id="path1266" />
    <g
       id="g1268"
       transform="matrix(1.35,0,0,1.35,308.51833,409.48208)">
      <path
         d="m 0,0 c -1.068,3.769 3.929,7.317 8.912,7.317 1.571,0.032 3.206,-0.33 4.527,-0.895 1.289,1.711 3.662,2.763 6.334,2.763 1.759,-0.062 3.646,-0.565 4.982,-1.491 0.958,1.523 2.986,2.402 5.171,2.402 1.838,0 3.52,-0.644 4.59,-1.633 1.226,1.021 3.064,1.633 4.997,1.633 3.112,0 5.753,-1.586 6.318,-3.815 3.019,-0.613 5.203,-2.638 5.203,-4.946 0,-0.706 -0.158,-1.397 -0.613,-2.041 1.273,-1.13 2.059,-2.527 2.059,-3.956 0,-3.235 -3.442,-5.967 -7.875,-6.422 0,-3.109 -3.409,-5.527 -7.685,-5.527 -1.461,0 -2.86,0.299 -4.086,0.864 -1.117,-2.732 -4.669,-4.663 -8.645,-4.663 -2.955,0 -5.753,1.146 -7.435,2.967 -1.571,-0.706 -0.753,-1.114 -5.249,-1.114 -3.708,0 -7.135,1.428 -8.911,3.752 -4.276,0.047 -6.46,1.884 -6.46,4.208 0,1.067 0.566,2.057 1.572,2.857 -1.84,0.675 -2.845,2.026 -2.845,3.564 0,2.151 2.231,3.941 5.139,4.176"
         style="fill:#9fc9eb;fill-opacity:1;fill-rule:evenodd;stroke:none"
         id="path1270" />
    </g>
    <path
       d="m 308.51833,409.48208 c -1.44315,5.08815 5.3055,9.87795 12.03255,9.87795 2.1195,0.0432 4.3281,-0.4455 6.1101,-1.20825 1.74015,2.30985 4.9437,3.73005 8.5509,3.73005 2.376,-0.0837 4.92345,-0.76275 6.7257,-2.01285 1.29465,2.05605 4.03245,3.2427 6.98085,3.2427 2.484,0 4.75335,-0.8694 6.1965,-2.20455 1.65375,1.37835 4.13775,2.20455 6.74595,2.20455 4.2012,0 7.7679,-2.1411 8.53065,-5.15025 4.0743,-0.82755 7.0227,-3.5613 7.0227,-6.6771 0,-0.9531 -0.2133,-1.88595 -0.8262,-2.75535 1.7172,-1.5255 2.7783,-3.4128 2.7783,-5.3406 0,-4.36725 -4.6467,-8.05545 -10.6299,-8.6697 0,-4.19715 -4.6035,-7.46145 -10.37475,-7.46145 -1.9737,0 -3.86235,0.40365 -5.5161,1.1664 -1.5093,-3.6882 -6.30315,-6.29505 -11.6721,-6.29505 -3.98925,0 -7.7652,1.5471 -10.0359,4.00545 -2.12085,-0.9531 -1.01925,-1.5039 -7.08615,-1.5039 -5.00715,0 -9.6336,1.9278 -12.0312,5.0652 -5.77125,0.0634 -8.721,2.5434 -8.721,5.6808 0,1.44045 0.7641,2.77695 2.1222,3.85695 -2.48265,0.91125 -3.8394,2.7351 -3.8394,4.8114 0,2.90385 3.01185,5.32035 6.9363,5.6376 z m -6.9363,13.6296 z m 77.7843,-41.1831 z m -70.848,27.5535 c 0.0634,-0.46575 0.40365,-1.01655 0.5751,-1.44045 m -7.5114,15.07005 z m 77.7843,-41.1831 z m -52.70535,36.2232 c 0.84915,-0.36045 1.8441,-0.8262 2.52585,-1.31355 m -27.6048,6.27345 z m 77.7843,-41.1831 z m -37.42875,37.9404 c -0.2754,-0.38205 -0.46575,-0.8694 -0.63585,-1.33515 m -39.7197,4.57785 z m 77.7843,-41.1831 z m -24.2514,38.97855 c -0.5319,-0.46575 -0.82755,-1.05975 -1.1907,-1.61055 m -52.3422,3.8151 z m 77.7843,-41.1831 z m -8.9748,36.03285 c 0.0634,-0.36045 0.42525,-1.10295 0.2754,-1.2717 m -69.0849,6.42195 z m 77.7843,-41.1831 z m -2.7783,26.6004 c -0.6156,-0.9747 -1.44315,-1.8225 -2.59065,-2.5434 m -72.41535,17.1261 z m 77.7843,-41.1831 z m -10.58805,12.5901 c 0.2754,1.5255 -1.37835,5.3406 -5.9832,6.7824 m -61.21305,21.8106 z m 77.7843,-41.1831 z m -26.52075,6.29505 c 0.29565,0.61425 0.4023,1.18665 0.46575,1.8009 m -51.7293,33.08715 z m 77.7843,-41.1831 z m -48.18555,4.00545 c -0.594,0.48735 -0.9558,1.0611 -1.29465,1.65375 m -28.3041,35.5239 z m 77.7843,-41.1831 z m -67.3461,7.56675 c 0.67905,0.0634 1.3581,0.19035 2.0142,0.36045 m -12.4524,33.2559 z m 77.7843,-41.1831 z m -73.9449,17.1045 c 1.188,-0.50895 2.5677,-0.9315 4.54005,-0.76275 m -8.37945,24.84135 z m 77.7843,-41.1831 z"
       style="fill:none;stroke:#231f20;stroke-width:1.0125;stroke-linecap:butt;stroke-linejoin:round;stroke-miterlimit:10;stroke-dasharray:1.08155, 1.08155, 1.08155, 1.08155;stroke-dashoffset:0;stroke-opacity:1"
       id="path1272" />
    <g
       id="g1388"
       transform="matrix(1.35,0,0,1.35,410.59858,420.01748)">
      <path
         d="m 0,0 c -0.785,3.768 2.846,7.332 6.477,7.332 1.147,0.031 2.341,-0.33 3.3,-0.895 0.943,1.711 2.672,2.763 4.605,2.763 1.288,-0.063 2.657,-0.565 3.631,-1.491 0.706,1.523 2.169,2.402 3.756,2.402 1.336,0 2.562,-0.644 3.332,-1.633 0.895,1.02 2.232,1.633 3.63,1.633 2.28,0 4.197,-1.586 4.606,-3.815 2.2,-0.628 3.788,-2.653 3.788,-4.962 0,-0.706 -0.127,-1.397 -0.456,-2.041 0.943,-1.13 1.508,-2.512 1.508,-3.941 0,-3.234 -2.514,-5.966 -5.736,-6.421 0,-3.109 -2.484,-5.527 -5.596,-5.527 -1.068,0 -2.075,0.298 -2.97,0.864 -0.802,-2.732 -3.395,-4.663 -6.271,-4.663 -2.153,0 -4.196,1.146 -5.407,2.967 -1.147,-0.706 -0.55,-1.114 -3.835,-1.114 -2.687,0 -5.186,1.428 -6.476,3.752 -3.112,0.047 -4.699,1.884 -4.699,4.208 0,1.067 0.409,2.056 1.148,2.857 -1.352,0.675 -2.075,2.026 -2.075,3.564 0,2.151 1.618,3.925 3.74,4.161"
         style="fill:#cfe6f4;fill-opacity:1;fill-rule:evenodd;stroke:none"
         id="path1390" />
    </g>
    <path
       d="m 410.59993,420.01748 c -1.0611,5.0868 3.8394,9.8982 8.7426,9.8982 1.5471,0.0419 3.16035,-0.4455 4.455,-1.20825 1.27305,2.30985 3.60585,3.7314 6.21675,3.7314 1.74015,-0.0864 3.5856,-0.7641 4.9005,-2.0142 0.95445,2.05605 2.9295,3.2427 5.07195,3.2427 1.8036,0 3.45735,-0.8694 4.4982,-2.20455 1.20825,1.377 3.0132,2.20455 4.9005,2.20455 3.078,0 5.66595,-2.1411 6.2181,-5.15025 2.97,-0.8478 5.11245,-3.58155 5.11245,-6.69735 0,-0.95445 -0.16875,-1.8873 -0.6129,-2.7567 1.2717,-1.5255 2.0358,-3.3912 2.0358,-5.32035 0,-4.3659 -3.39525,-8.0541 -7.74495,-8.66835 0,-4.19715 -3.35205,-7.46145 -7.55325,-7.46145 -1.44315,0 -2.80125,0.4023 -4.0095,1.1664 -1.0827,-3.6882 -4.5846,-6.29505 -8.46855,-6.29505 -2.9052,0 -5.66325,1.5471 -7.2981,4.00545 -1.54845,-0.9531 -0.7425,-1.5039 -5.17725,-1.5039 -3.6288,0 -7.00245,1.9278 -8.74125,5.0652 -4.19985,0.0635 -6.345,2.5434 -6.345,5.6808 0,1.44045 0.55215,2.7756 1.5498,3.85695 -1.8252,0.91125 -2.80125,2.7351 -2.80125,4.8114 0,2.90385 2.18565,5.29875 5.05035,5.61735 z m -5.05035,13.64985 z m 56.5893,-41.1831 z m -51.53895,27.53325 c 0.0432,-0.4671 0.2754,-1.0179 0.42525,-1.4418 m -5.4756,15.09165 z m 56.5893,-41.1831 z m -38.34135,36.2232 c 0.6156,-0.36045 1.3365,-0.8478 1.84545,-1.33515 m -20.0934,6.29505 z m 56.5893,-41.1831 z m -27.2241,37.9404 c -0.2106,-0.38205 -0.33885,-0.8694 -0.46575,-1.3365 m -28.89945,4.5792 z m 56.5893,-41.1831 z m -17.65395,38.97855 c -0.38205,-0.46575 -0.59265,-1.05975 -0.87075,-1.61055 m -38.0646,3.8151 z m 56.5893,-41.1831 z m -6.53535,36.03285 c 0.0432,-0.36045 0.3186,-1.1232 0.21195,-1.2933 m -50.2659,6.44355 z m 56.5893,-41.1831 z m -2.0358,26.5788 c -0.4455,-0.9747 -1.04085,-1.8009 -1.88865,-2.5218 m -52.66485,17.1261 z m 56.5893,-41.1831 z m -7.72335,12.5901 c 0.21195,1.52685 -0.99765,5.3406 -4.35105,6.7824 m -44.5149,21.8106 z m 56.5893,-41.1831 z m -19.3077,6.29505 c 0.2106,0.61425 0.29565,1.18665 0.33885,1.80225 m -37.62045,33.0858 z m 56.5893,-41.1831 z m -35.05275,4.00545 c -0.42525,0.4887 -0.67905,1.05975 -0.95445,1.65375 m -20.5821,35.5239 z m 56.5893,-41.1831 z m -48.99285,7.56675 c 0.48735,0.0635 0.99765,0.19035 1.4634,0.36045 m -9.05985,33.2559 z m 56.5893,-41.1831 z m -53.78805,17.1045 c 0.84915,-0.50895 1.84545,-0.93285 3.28725,-0.76275 m -6.0885,24.84135 z m 56.5893,-41.1831 z"
       style="fill:none;stroke:#231f20;stroke-width:1.0125;stroke-linecap:butt;stroke-linejoin:round;stroke-miterlimit:10;stroke-dasharray:1.08155, 1.08155, 1.08155, 1.08155;stroke-dashoffset:0;stroke-opacity:1"
       id="path1392" />
    <g
       id="g1394"
       transform="matrix(1.35,0,0,1.35,406.33528,409.46183)">
      <path
         d="m 0,0 c -0.787,3.768 2.844,7.317 6.475,7.317 1.147,0.031 2.341,-0.33 3.301,-0.896 0.942,1.712 2.671,2.764 4.605,2.764 1.288,-0.063 2.656,-0.566 3.631,-1.492 0.707,1.523 2.168,2.402 3.772,2.402 1.336,0 2.546,-0.644 3.315,-1.633 0.897,1.021 2.232,1.633 3.631,1.633 2.279,0 4.196,-1.585 4.605,-3.815 2.201,-0.612 3.789,-2.638 3.789,-4.946 0,-0.706 -0.126,-1.397 -0.456,-2.041 0.942,-1.13 1.509,-2.527 1.509,-3.956 0,-3.234 -2.516,-5.966 -5.738,-6.422 0,-3.108 -2.483,-5.526 -5.594,-5.526 -1.07,0 -2.075,0.298 -2.972,0.863 -0.785,-2.731 -3.378,-4.663 -6.27,-4.663 -2.154,0 -4.197,1.146 -5.407,2.968 -1.147,-0.707 -0.55,-1.115 -3.834,-1.115 -2.689,0 -5.188,1.429 -6.477,3.752 -3.111,0.047 -4.699,1.884 -4.699,4.208 0,1.068 0.409,2.057 1.147,2.857 -1.352,0.676 -2.075,2.026 -2.075,3.565 0,2.151 1.62,3.94 3.742,4.176"
         style="fill:#9fc9eb;fill-opacity:1;fill-rule:evenodd;stroke:none"
         id="path1396" />
    </g>
    <path
       d="m 406.33528,409.46183 c -1.0611,5.0868 3.8394,9.8766 8.74125,9.8766 1.54845,0.0432 3.1617,-0.44415 4.45635,-1.20825 1.27305,2.3112 3.60585,3.7314 6.21675,3.7314 1.74015,-0.0851 3.5856,-0.7641 4.9005,-2.0142 0.95445,2.05605 2.9295,3.2427 5.09355,3.2427 1.80225,0 3.43845,-0.8694 4.4766,-2.20455 1.20825,1.37835 3.0132,2.20455 4.9005,2.20455 3.07665,0 5.66595,-2.1411 6.2181,-5.15025 2.97,-0.8262 5.11245,-3.5613 5.11245,-6.6771 0,-0.9531 -0.16875,-1.88595 -0.6156,-2.75535 1.2744,-1.5255 2.0385,-3.4128 2.0385,-5.3406 0,-4.3659 -3.39525,-8.0541 -7.74495,-8.66835 0,-4.19715 -3.35205,-7.46145 -7.55325,-7.46145 -1.44315,0 -2.80125,0.4023 -4.0095,1.16505 -1.0611,-3.68685 -4.563,-6.29505 -8.46855,-6.29505 -2.9052,0 -5.66325,1.5471 -7.29675,4.0068 -1.5498,-0.95445 -0.74385,-1.50525 -5.1786,-1.50525 -3.6288,0 -7.00245,1.92915 -8.74125,5.0652 -4.20255,0.0634 -6.345,2.5434 -6.345,5.6808 0,1.4418 0.55215,2.77695 1.5498,3.85695 -1.8252,0.9126 -2.80125,2.7351 -2.80125,4.81275 0,2.90385 2.18565,5.319 5.05035,5.6376 z m -5.05035,13.62825 z m 56.5893,-41.1831 z m -51.53895,27.55485 c 0.0419,-0.4671 0.2754,-1.0179 0.42255,-1.4418 m -5.4729,15.07005 z m 56.5893,-41.1831 z m -38.34135,36.2232 c 0.6156,-0.3591 1.3365,-0.8262 1.84545,-1.31355 m -20.0934,6.27345 z m 56.5893,-41.1831 z m -27.2241,37.9404 c -0.2106,-0.38205 -0.33885,-0.8694 -0.46575,-1.33515 m -28.89945,4.57785 z m 56.5893,-41.1831 z m -17.65395,38.97855 c -0.38205,-0.46575 -0.59535,-1.0584 -0.87075,-1.61055 m -38.0646,3.8151 z m 56.5893,-41.1831 z m -6.53535,36.03285 c 0.0419,-0.36045 0.3186,-1.1016 0.21195,-1.2717 m -50.2659,6.42195 z m 56.5893,-41.1831 z m -2.0385,26.6004 c -0.4455,-0.9747 -1.03815,-1.8225 -1.8873,-2.54205 m -52.6635,17.12475 z m 56.5893,-41.1831 z m -7.72335,12.59145 c 0.21195,1.5255 -0.99765,5.3406 -4.35105,6.78105 m -44.5149,21.8106 z m 56.5893,-41.1831 z m -19.3077,6.29505 c 0.2106,0.6156 0.297,1.18665 0.33885,1.80225 m -37.62045,33.0858 z m 56.5893,-41.1831 z m -35.05275,4.0068 c -0.42525,0.48735 -0.67905,1.05975 -0.95445,1.6524 m -20.5821,35.5239 z m 56.5893,-41.1831 z m -48.99285,7.56675 c 0.48735,0.0634 0.9963,0.1917 1.4634,0.36045 m -9.05985,33.2559 z m 56.5893,-41.1831 z m -53.78805,17.1045 c 0.8478,-0.5076 1.84545,-0.9315 3.28725,-0.76275 m -6.0885,24.84135 z m 56.5893,-41.1831 z"
       style="fill:none;stroke:#231f20;stroke-width:1.0125;stroke-linecap:butt;stroke-linejoin:round;stroke-miterlimit:10;stroke-dasharray:1.08155, 1.08155, 1.08155, 1.08155;stroke-dashoffset:0;stroke-opacity:1"
       id="path1398" />
    <text
       xml:space="preserve"
       style="font-style:normal;font-variant:normal;font-weight:normal;font-stretch:normal;font-size:12px;font-family:serif;-inkscape-font-specification:'serif, Normal';font-variant-ligatures:normal;font-variant-caps:normal;font-variant-numeric:normal;font-variant-east-asian:normal;fill:#000000;stroke-width:0.595287"
       x="276.21802"
       y="-567.73938"
       id="text896"
       transform="scale(1,-1)"
       inkscape:transform-center-x="-2.2933193"
       inkscape:transform-center-y="0.45866387"><tspan
         sodipodi:role="line"
         id="tspan1135"
         x="276.21802"
         y="-567.73938">θ ~ Beta(μ, κ)</tspan></text>
    <text
       xml:space="preserve"
       style="font-style:normal;font-variant:normal;font-weight:normal;font-stretch:normal;font-size:12px;font-family:serif;-inkscape-font-specification:'serif, Normal';font-variant-ligatures:normal;font-variant-caps:normal;font-variant-numeric:normal;font-variant-east-asian:normal;display:inline;fill:#000000;stroke-width:0.595287"
       x="109.88145"
       y="-548.42596"
       id="text896-7"
       transform="scale(1,-1)"><tspan
         sodipodi:role="line"
         id="tspan1133"
         x="109.88145"
         y="-548.42596">x ~ Binom(n, θ)</tspan></text>
    <text
       xml:space="preserve"
       style="font-style:normal;font-variant:normal;font-weight:normal;font-stretch:normal;font-size:12px;font-family:serif;-inkscape-font-specification:'serif, Normal';font-variant-ligatures:normal;font-variant-caps:normal;font-variant-numeric:normal;font-variant-east-asian:normal;display:inline;fill:#000000;stroke-width:0.595287"
       x="311.15036"
       y="-362.32312"
       id="text896-79"
       transform="scale(1,-1)"
       inkscape:transform-center-x="-2.2933193"
       inkscape:transform-center-y="0.45866387"><tspan
         sodipodi:role="line"
         id="tspan1166"
         x="311.15036"
         y="-362.32312">θ | x, n; μ, κ</tspan></text>
    <text
       xml:space="preserve"
       style="font-style:normal;font-variant:normal;font-weight:normal;font-stretch:normal;font-size:12px;font-family:serif;-inkscape-font-specification:'serif, Normal';font-variant-ligatures:normal;font-variant-caps:normal;font-variant-numeric:normal;font-variant-east-asian:normal;display:inline;fill:#000000;stroke-width:0.595287"
       x="51.431934"
       y="-394.31494"
       id="text896-2"
       transform="scale(1,-1)"
       inkscape:transform-center-x="-2.2933193"
       inkscape:transform-center-y="0.45866387"><tspan
         sodipodi:role="line"
         id="tspan1195"
         x="51.431934"
         y="-394.31494">Beta(x + μκ, n - x + (1-μ)κ)</tspan></text>
    <text
       xml:space="preserve"
       style="font-style:normal;font-variant:normal;font-weight:normal;font-stretch:normal;font-size:12px;font-family:serif;-inkscape-font-specification:'serif, Normal';font-variant-ligatures:normal;font-variant-caps:normal;font-variant-numeric:normal;font-variant-east-asian:normal;display:inline;fill:#000000;stroke-width:0.595287"
       x="407.93262"
       y="-361.6351"
       id="text896-79-4"
       transform="scale(1,-1)"
       inkscape:transform-center-x="-2.2933193"
       inkscape:transform-center-y="0.45866387"><tspan
         sodipodi:role="line"
         id="tspan1224"
         x="407.93262"
         y="-361.6351">y | k, θ</tspan></text>
    <text
       xml:space="preserve"
       style="font-style:normal;font-variant:normal;font-weight:normal;font-stretch:normal;font-size:12px;font-family:serif;-inkscape-font-specification:'serif, Normal';font-variant-ligatures:normal;font-variant-caps:normal;font-variant-numeric:normal;font-variant-east-asian:normal;display:inline;fill:#000000;stroke-width:0.595287"
       x="297.32806"
       y="-452.79459"
       id="text896-2-2"
       transform="scale(1,-1)"
       inkscape:transform-center-x="-2.2933193"
       inkscape:transform-center-y="0.45866387"><tspan
         sodipodi:role="line"
         id="tspan2286"
         x="297.32806"
         y="-452.79459">BetaBinom(k, x + μκ, n - x + (1-μ)κ)</tspan></text>
    <text
       xml:space="preserve"
       style="font-style:normal;font-variant:normal;font-weight:normal;font-stretch:normal;font-size:9px;font-family:sans-serif;-inkscape-font-specification:'sans-serif, Normal';font-variant-ligatures:normal;font-variant-caps:normal;font-variant-numeric:normal;font-variant-east-asian:normal;fill:#000000;stroke-width:0.75"
       x="523.04224"
       y="-482.49744"
       id="text1267"
       transform="scale(1,-1)"><tspan
         sodipodi:role="line"
         id="tspan845"
         x="523.04224"
         y="-482.49744"
         style="text-align:center;text-anchor:middle">CI: L &lt; δ &lt; U</tspan><tspan
         sodipodi:role="line"
         id="tspan847"
         x="523.04224"
         y="-471.24744"
         style="text-align:center;text-anchor:middle">for level 2α</tspan></text>
    <text
       xml:space="preserve"
       style="font-style:normal;font-variant:normal;font-weight:normal;font-stretch:normal;font-size:9px;font-family:sans-serif;-inkscape-font-specification:'sans-serif, Normal';font-variant-ligatures:normal;font-variant-caps:normal;font-variant-numeric:normal;font-variant-east-asian:normal;display:inline;fill:#000000;stroke-width:0.75"
       x="516.95282"
       y="-340.06161"
       id="text1267-9"
       transform="scale(1,-1)"><tspan
         sodipodi:role="line"
         id="tspan2240"
         x="516.95282"
         y="-340.06161"
         style="text-align:center;text-anchor:middle">Distribution from</tspan><tspan
         sodipodi:role="line"
         id="tspan2242"
         x="516.95282"
         y="-328.81161"
         style="text-align:center;text-anchor:middle">simulated dataset:</tspan></text>
    <text
       xml:space="preserve"
       style="font-style:italic;font-variant:normal;font-weight:normal;font-stretch:normal;font-size:9px;font-family:sans-serif;-inkscape-font-specification:'sans-serif, Italic';font-variant-ligatures:normal;font-variant-caps:normal;font-variant-numeric:normal;font-variant-east-asian:normal;display:inline;fill:#000000;stroke-width:0.75"
       x="474.47668"
       y="-316.9747"
       id="text1267-9-5"
       transform="scale(1,-1)"><tspan
         sodipodi:role="line"
         id="tspan2276"
         x="474.47668"
         y="-316.9747">Are goals achieved?</tspan></text>
    <text
       xml:space="preserve"
       style="font-style:normal;font-variant:normal;font-weight:normal;font-stretch:normal;font-size:7px;font-family:sans-serif;-inkscape-font-specification:'sans-serif, Normal';font-variant-ligatures:normal;font-variant-caps:normal;font-variant-numeric:normal;font-variant-east-asian:normal;display:inline;fill:#000000;stroke-width:0.75"
       x="234.24216"
       y="-581.75714"
       id="text1267-9-3"
       transform="scale(1,-1)"><tspan
         sodipodi:role="line"
         id="tspan2242-0"
         x="234.24216"
         y="-581.75714"
         style="font-style:normal;font-variant:normal;font-weight:normal;font-stretch:normal;font-size:7px;font-family:sans-serif;-inkscape-font-specification:'sans-serif, Normal';font-variant-ligatures:normal;font-variant-caps:normal;font-variant-numeric:normal;font-variant-east-asian:normal;text-align:center;text-anchor:middle">Prior / user</tspan><tspan
         sodipodi:role="line"
         x="234.24216"
         y="-573.00714"
         style="font-style:normal;font-variant:normal;font-weight:normal;font-stretch:normal;font-size:7px;font-family:sans-serif;-inkscape-font-specification:'sans-serif, Normal';font-variant-ligatures:normal;font-variant-caps:normal;font-variant-numeric:normal;font-variant-east-asian:normal;text-align:center;text-anchor:middle"
         id="tspan865">expectations</tspan><tspan
         sodipodi:role="line"
         x="234.24216"
         y="-564.25714"
         style="font-style:normal;font-variant:normal;font-weight:normal;font-stretch:normal;font-size:7px;font-family:sans-serif;-inkscape-font-specification:'sans-serif, Normal';font-variant-ligatures:normal;font-variant-caps:normal;font-variant-numeric:normal;font-variant-east-asian:normal;text-align:center;text-anchor:middle"
         id="tspan1362">(hypothetical data</tspan><tspan
         sodipodi:role="line"
         x="234.24216"
         y="-555.50714"
         style="font-style:normal;font-variant:normal;font-weight:normal;font-stretch:normal;font-size:7px;font-family:sans-serif;-inkscape-font-specification:'sans-serif, Normal';font-variant-ligatures:normal;font-variant-caps:normal;font-variant-numeric:normal;font-variant-east-asian:normal;text-align:center;text-anchor:middle"
         id="tspan1370">equivalent)</tspan></text>
    <text
       xml:space="preserve"
       style="font-style:normal;font-variant:normal;font-weight:normal;font-stretch:normal;font-size:8px;font-family:sans-serif;-inkscape-font-specification:'sans-serif, Normal';font-variant-ligatures:normal;font-variant-caps:normal;font-variant-numeric:normal;font-variant-east-asian:normal;display:inline;fill:#000000;stroke-width:0.75"
       x="236.77344"
       y="-514.16064"
       id="text1267-9-3-1"
       transform="scale(1,-1)"><tspan
         sodipodi:role="line"
         x="236.77344"
         y="-514.16064"
         style="font-style:normal;font-variant:normal;font-weight:normal;font-stretch:normal;font-size:8px;font-family:sans-serif;-inkscape-font-specification:'sans-serif, Normal';font-variant-ligatures:normal;font-variant-caps:normal;font-variant-numeric:normal;font-variant-east-asian:normal;text-align:center;text-anchor:middle"
         id="tspan865-1">Bayes' rule:</tspan><tspan
         sodipodi:role="line"
         x="236.77344"
         y="-504.16064"
         style="font-style:normal;font-variant:normal;font-weight:normal;font-stretch:normal;font-size:8px;font-family:sans-serif;-inkscape-font-specification:'sans-serif, Normal';font-variant-ligatures:normal;font-variant-caps:normal;font-variant-numeric:normal;font-variant-east-asian:normal;text-align:center;text-anchor:middle"
         id="tspan1378">weighted</tspan><tspan
         sodipodi:role="line"
         x="236.77344"
         y="-494.16064"
         style="font-style:normal;font-variant:normal;font-weight:normal;font-stretch:normal;font-size:8px;font-family:sans-serif;-inkscape-font-specification:'sans-serif, Normal';font-variant-ligatures:normal;font-variant-caps:normal;font-variant-numeric:normal;font-variant-east-asian:normal;text-align:center;text-anchor:middle"
         id="tspan1380">posterior</tspan></text>
    <text
       xml:space="preserve"
       style="font-style:normal;font-variant:normal;font-weight:normal;font-stretch:normal;font-size:8px;font-family:sans-serif;-inkscape-font-specification:'sans-serif, Normal';font-variant-ligatures:normal;font-variant-caps:normal;font-variant-numeric:normal;font-variant-east-asian:normal;display:inline;fill:#000000;stroke-width:0.75"
       x="54.454559"
       y="-505.5607"
       id="text1267-9-3-4"
       transform="scale(1,-1)"><tspan
         sodipodi:role="line"
         x="54.454559"
         y="-505.5607"
         style="font-style:normal;font-variant:normal;font-weight:normal;font-stretch:normal;font-size:8px;font-family:sans-serif;-inkscape-font-specification:'sans-serif, Normal';font-variant-ligatures:normal;font-variant-caps:normal;font-variant-numeric:normal;font-variant-east-asian:normal;text-align:center;text-anchor:middle"
         id="tspan1350">Real</tspan><tspan
         sodipodi:role="line"
         x="54.454559"
         y="-495.5607"
         style="font-style:normal;font-variant:normal;font-weight:normal;font-stretch:normal;font-size:8px;font-family:sans-serif;-inkscape-font-specification:'sans-serif, Normal';font-variant-ligatures:normal;font-variant-caps:normal;font-variant-numeric:normal;font-variant-east-asian:normal;text-align:center;text-anchor:middle"
         id="tspan941">world</tspan><tspan
         sodipodi:role="line"
         x="54.454559"
         y="-485.5607"
         style="font-style:normal;font-variant:normal;font-weight:normal;font-stretch:normal;font-size:8px;font-family:sans-serif;-inkscape-font-specification:'sans-serif, Normal';font-variant-ligatures:normal;font-variant-caps:normal;font-variant-numeric:normal;font-variant-east-asian:normal;text-align:center;text-anchor:middle"
         id="tspan1354">study</tspan></text>
    <text
       xml:space="preserve"
       style="font-style:normal;font-variant:normal;font-weight:normal;font-stretch:normal;font-size:8px;font-family:sans-serif;-inkscape-font-specification:'sans-serif, Normal';font-variant-ligatures:normal;font-variant-caps:normal;font-variant-numeric:normal;font-variant-east-asian:normal;display:inline;fill:#000000;stroke-width:0.75"
       x="135.29407"
       y="-510.25266"
       id="text1267-9-3-13"
       transform="scale(1,-1)"><tspan
         sodipodi:role="line"
         x="135.29407"
         y="-510.25266"
         style="font-style:normal;font-variant:normal;font-weight:normal;font-stretch:normal;font-size:8px;font-family:sans-serif;-inkscape-font-specification:'sans-serif, Normal';font-variant-ligatures:normal;font-variant-caps:normal;font-variant-numeric:normal;font-variant-east-asian:normal;text-align:center;text-anchor:middle"
         id="tspan966">Actual</tspan><tspan
         sodipodi:role="line"
         x="135.29407"
         y="-500.25266"
         style="font-style:normal;font-variant:normal;font-weight:normal;font-stretch:normal;font-size:8px;font-family:sans-serif;-inkscape-font-specification:'sans-serif, Normal';font-variant-ligatures:normal;font-variant-caps:normal;font-variant-numeric:normal;font-variant-east-asian:normal;text-align:center;text-anchor:middle"
         id="tspan968">sample of</tspan><tspan
         sodipodi:role="line"
         x="135.29407"
         y="-490.25266"
         style="font-style:normal;font-variant:normal;font-weight:normal;font-stretch:normal;font-size:8px;font-family:sans-serif;-inkscape-font-specification:'sans-serif, Normal';font-variant-ligatures:normal;font-variant-caps:normal;font-variant-numeric:normal;font-variant-east-asian:normal;text-align:center;text-anchor:middle"
         id="tspan970">data</tspan><tspan
         sodipodi:role="line"
         x="135.29407"
         y="-480.25266"
         style="font-style:normal;font-variant:normal;font-weight:normal;font-stretch:normal;font-size:8px;font-family:sans-serif;-inkscape-font-specification:'sans-serif, Normal';font-variant-ligatures:normal;font-variant-caps:normal;font-variant-numeric:normal;font-variant-east-asian:normal;text-align:center;text-anchor:middle"
         id="tspan1358">(currently)</tspan></text>
    <text
       xml:space="preserve"
       style="font-style:normal;font-variant:normal;font-weight:normal;font-stretch:normal;font-size:8px;font-family:sans-serif;-inkscape-font-specification:'sans-serif, Normal';font-variant-ligatures:normal;font-variant-caps:normal;font-variant-numeric:normal;font-variant-east-asian:normal;display:inline;fill:#000000;stroke-width:0.75"
       x="231.95744"
       y="-427.47318"
       id="text1267-9-3-3"
       transform="scale(1,-1)"><tspan
         sodipodi:role="line"
         x="231.95744"
         y="-427.47318"
         style="font-style:normal;font-variant:normal;font-weight:normal;font-stretch:normal;font-size:8px;font-family:sans-serif;-inkscape-font-specification:'sans-serif, Normal';font-variant-ligatures:normal;font-variant-caps:normal;font-variant-numeric:normal;font-variant-east-asian:normal;text-align:center;text-anchor:middle"
         id="tspan865-4">Conditional</tspan><tspan
         sodipodi:role="line"
         x="231.95744"
         y="-417.47318"
         style="font-style:normal;font-variant:normal;font-weight:normal;font-stretch:normal;font-size:8px;font-family:sans-serif;-inkscape-font-specification:'sans-serif, Normal';font-variant-ligatures:normal;font-variant-caps:normal;font-variant-numeric:normal;font-variant-east-asian:normal;text-align:center;text-anchor:middle"
         id="tspan995">hypothesis about</tspan><tspan
         sodipodi:role="line"
         x="231.95744"
         y="-407.47318"
         style="font-style:normal;font-variant:normal;font-weight:normal;font-stretch:normal;font-size:8px;font-family:sans-serif;-inkscape-font-specification:'sans-serif, Normal';font-variant-ligatures:normal;font-variant-caps:normal;font-variant-numeric:normal;font-variant-east-asian:normal;text-align:center;text-anchor:middle"
         id="tspan997">distribution of</tspan><tspan
         sodipodi:role="line"
         x="231.95744"
         y="-397.47318"
         style="font-style:normal;font-variant:normal;font-weight:normal;font-stretch:normal;font-size:8px;font-family:sans-serif;-inkscape-font-specification:'sans-serif, Normal';font-variant-ligatures:normal;font-variant-caps:normal;font-variant-numeric:normal;font-variant-east-asian:normal;text-align:center;text-anchor:middle"
         id="tspan999">parameters</tspan></text>
    <text
       xml:space="preserve"
       style="font-style:normal;font-variant:normal;font-weight:normal;font-stretch:normal;font-size:8px;font-family:sans-serif;-inkscape-font-specification:'sans-serif, Normal';font-variant-ligatures:normal;font-variant-caps:normal;font-variant-numeric:normal;font-variant-east-asian:normal;display:inline;fill:#000000;stroke-width:0.75"
       x="341.74503"
       y="-410.74344"
       id="text1267-9-3-4-6"
       transform="scale(1,-1)"><tspan
         sodipodi:role="line"
         x="341.74503"
         y="-410.74344"
         style="font-style:normal;font-variant:normal;font-weight:normal;font-stretch:normal;font-size:8px;font-family:sans-serif;-inkscape-font-specification:'sans-serif, Normal';font-variant-ligatures:normal;font-variant-caps:normal;font-variant-numeric:normal;font-variant-east-asian:normal;text-align:center;text-anchor:middle"
         id="tspan941-6">Representative</tspan><tspan
         sodipodi:role="line"
         x="341.74503"
         y="-400.74344"
         style="font-style:normal;font-variant:normal;font-weight:normal;font-stretch:normal;font-size:8px;font-family:sans-serif;-inkscape-font-specification:'sans-serif, Normal';font-variant-ligatures:normal;font-variant-caps:normal;font-variant-numeric:normal;font-variant-east-asian:normal;text-align:center;text-anchor:middle"
         id="tspan1062">parameter</tspan><tspan
         sodipodi:role="line"
         x="341.74503"
         y="-390.74344"
         style="font-style:normal;font-variant:normal;font-weight:normal;font-stretch:normal;font-size:8px;font-family:sans-serif;-inkscape-font-specification:'sans-serif, Normal';font-variant-ligatures:normal;font-variant-caps:normal;font-variant-numeric:normal;font-variant-east-asian:normal;text-align:center;text-anchor:middle"
         id="tspan1064">values</tspan></text>
    <text
       xml:space="preserve"
       style="font-style:normal;font-variant:normal;font-weight:normal;font-stretch:normal;font-size:8px;font-family:sans-serif;-inkscape-font-specification:'sans-serif, Normal';font-variant-ligatures:normal;font-variant-caps:normal;font-variant-numeric:normal;font-variant-east-asian:normal;display:inline;fill:#000000;stroke-width:0.75"
       x="429.46451"
       y="-410.74347"
       id="text1267-9-3-4-1"
       transform="scale(1,-1)"><tspan
         sodipodi:role="line"
         x="429.46451"
         y="-410.74347"
         style="font-style:normal;font-variant:normal;font-weight:normal;font-stretch:normal;font-size:8px;font-family:sans-serif;-inkscape-font-specification:'sans-serif, Normal';font-variant-ligatures:normal;font-variant-caps:normal;font-variant-numeric:normal;font-variant-east-asian:normal;text-align:center;text-anchor:middle"
         id="tspan941-4">Simulated</tspan><tspan
         sodipodi:role="line"
         x="429.46451"
         y="-400.74347"
         style="font-style:normal;font-variant:normal;font-weight:normal;font-stretch:normal;font-size:8px;font-family:sans-serif;-inkscape-font-specification:'sans-serif, Normal';font-variant-ligatures:normal;font-variant-caps:normal;font-variant-numeric:normal;font-variant-east-asian:normal;text-align:center;text-anchor:middle"
         id="tspan1096">sample</tspan><tspan
         sodipodi:role="line"
         x="429.46451"
         y="-390.74347"
         style="font-style:normal;font-variant:normal;font-weight:normal;font-stretch:normal;font-size:8px;font-family:sans-serif;-inkscape-font-specification:'sans-serif, Normal';font-variant-ligatures:normal;font-variant-caps:normal;font-variant-numeric:normal;font-variant-east-asian:normal;text-align:center;text-anchor:middle"
         id="tspan1098">of data</tspan></text>
  </g>
</svg>
